<?xml version="1.0" encoding="UTF-8"?>
<svg version="1.1" xmlns="http://www.w3.org/2000/svg" width="1200" height="428">
<path d="M0 0 C0.99 0.495 0.99 0.495 2 1 C1.60844727 1.67651611 1.21689453 2.35303223 0.81347656 3.05004883 C-27.24202961 51.80324673 -54.79301995 113.96435704 -39.38183594 171.29980469 C-31.94104226 197.34799797 -15.97477297 219.75266784 7.95019531 233.08691406 C62.21153876 261.93041374 128.64578764 245.72033442 184.63736343 230.47127914 C188.85056148 229.32677989 193.06734488 228.19564463 197.28393555 227.0637207 C202.73593351 225.59964053 208.18776729 224.13497934 213.63838196 222.66575623 C227.63957599 218.8928949 241.65254001 215.16578603 255.671875 211.4609375 C257.2379141 211.04705969 257.2379141 211.04705969 258.83559036 210.62482071 C264.16942239 209.21536728 269.50341127 207.80650846 274.83746338 206.39788818 C285.69738809 203.5296762 296.55587396 200.65602664 307.4140625 197.78125 C308.48809704 197.49689968 309.56213158 197.21254936 310.66871262 196.91958237 C335.38431862 190.3751377 360.08815793 183.78676172 384.7902832 177.19165039 C404.35888548 171.9671422 423.92857854 166.74704726 443.5078125 161.5625 C444.34588943 161.34057669 445.18396637 161.11865337 446.04743958 160.89000511 C452.8121982 159.09884388 459.57714207 157.30838258 466.34211731 155.5180397 C487.89424973 149.81402094 509.44022277 144.08760521 530.9765625 138.32421875 C532.03907856 138.03987724 533.10159462 137.75553574 534.19630814 137.46257782 C540.68990583 135.72468575 547.18338282 133.98634295 553.67684174 132.24793243 C584.33108599 124.04128154 614.99265777 115.86606981 645.6875 107.8125 C672.37063865 100.81113635 699.03506705 93.74237631 725.6875 86.625 C733.27076801 84.60001571 740.85406636 82.57514522 748.4375 80.55078125 C749.40752457 80.29183201 750.37754913 80.03288277 751.37696838 79.76608658 C776.42350972 73.08072696 801.47947622 66.43087234 826.53562164 59.78161621 C830.18243031 58.81384537 833.82922412 57.84601854 837.47601318 56.87817383 C846.98699018 54.35400163 856.49797725 51.82986738 866.00900269 49.30587769 C884.4992425 44.39892294 902.98867527 39.48893915 921.47690296 34.57440853 C926.29777887 33.2930202 931.11891943 32.01263411 935.94030094 30.73314953 C950.91582192 26.75873479 965.88660207 22.76834287 980.84331322 18.72365189 C985.12598675 17.56631287 989.40973723 16.41296446 993.69346714 15.25954247 C997.01919366 14.36349531 1000.34395543 13.46415284 1003.66665649 12.5569458 C1007.22897909 11.58539015 1010.79381897 10.62367061 1014.359375 9.6640625 C1015.40504135 9.37571533 1016.4507077 9.08736816 1017.52806091 8.7902832 C1018.47754105 8.53674072 1019.42702118 8.28319824 1020.40527344 8.02197266 C1021.22622498 7.79885406 1022.04717651 7.57573547 1022.89300537 7.34585571 C1025 7 1025 7 1028 8 C1015.89511695 13.82690389 1003.56509604 19.08837068 991.1965332 24.32641602 C986.37763817 26.36722963 981.5612161 28.41384963 976.74465942 30.46017456 C974.29952739 31.4989689 971.85427607 32.53748252 969.40890503 33.57571411 C958.9288067 38.02620335 948.46218279 42.50759521 938 47 C922.30385574 53.73706626 906.59197605 60.43668959 890.875 67.125 C865.24187586 78.03406556 839.63410382 89.0017256 814.03222656 99.98388672 C801.1904443 105.4921865 788.34628368 110.99493917 775.50256348 116.49871826 C772.00429841 117.99780903 768.50604914 119.49693665 765.0078125 120.99609375 C763.85321533 121.49089233 762.69861816 121.98569092 761.5090332 122.4954834 C754.48840361 125.50435963 747.46832576 128.51451919 740.44866943 131.52566528 C715.1937716 142.35892356 689.92913382 153.16849611 664.64294434 163.92852783 C640.43093343 174.23238179 616.24533718 184.5974649 592.06298828 194.97070312 C579.05374372 200.55082257 566.04208523 206.12531211 553.03088379 211.7008667 C549.53489776 213.19898181 546.03892696 214.69713246 542.54296875 216.1953125 C540.83465378 216.92740433 540.83465378 216.92740433 539.09182739 217.67428589 C531.55664099 220.90368997 524.02227507 224.13500235 516.48828125 227.3671875 C495.48340411 236.37741203 474.46818622 245.36266782 453.4375 254.3125 C427.9501713 265.15898105 402.48829384 276.06427243 377.03222656 286.98388672 C364.1904443 292.4921865 351.34628368 297.99493917 338.50256348 303.49871826 C335.00429841 304.99780903 331.50604914 306.49693665 328.0078125 307.99609375 C326.85321533 308.49089233 325.69861816 308.98569092 324.5090332 309.4954834 C317.48847482 312.50432911 310.46846813 315.51445804 303.44888306 318.52557373 C276.76025303 329.97384045 250.06074008 341.39573794 223.3371582 352.76220703 C213.10126285 357.1168493 202.86874123 361.47868354 192.65234375 365.87890625 C134.59182559 390.88522739 76.78862446 415.07545314 13.875 424.875 C13.21149536 424.97863861 12.54799072 425.08227722 11.86437988 425.1890564 C-2.07249621 427.3389584 -15.79013792 428.23882094 -29.875 428.25 C-30.64457031 428.25067474 -31.41414062 428.25134949 -32.20703125 428.25204468 C-67.07321006 428.20370978 -103.14399219 420.64246841 -130 397 C-130.80566406 396.32582031 -131.61132812 395.65164063 -132.44140625 394.95703125 C-154.9982452 375.57721187 -168.74353658 348.55822064 -172 319 C-172.37754455 313.25584063 -172.39071168 307.50434579 -172.375 301.75 C-172.37412384 300.96209076 -172.37324768 300.17418152 -172.37234497 299.36239624 C-172.06914111 216.22473568 -119.81260632 137.87277809 -67.5078125 76.9375 C-65.15112768 74.17702183 -62.84875658 71.381397 -60.5625 68.5625 C-52.72397076 58.94630431 -44.61106295 49.58450436 -36.2265625 40.44140625 C-34.30866793 38.33845167 -32.42623955 36.21330844 -30.5625 34.0625 C-27.6011649 30.6531142 -24.55847514 27.3220569 -21.5 24 C-17.86773945 20.05428632 -14.2829662 16.07542817 -10.76953125 12.0234375 C-7.22749258 7.97315928 -3.60747906 3.99194962 0 0 Z " fill="#000000" transform="translate(172,0)"/>
</svg>
